REM DIRINDEX 1\2,1\3
REM DIRNAME folder01,folder02,folder03
TITLE ""
FILE "Track73.mp3" MP3
  TRACK 01 AUDIO
    TITLE "0:"
    INDEX 01 00:00:00
  TRACK 02 AUDIO
    TITLE "3:cjc140_257"
    INDEX 01 00:00:05
  TRACK 03 AUDIO
    TITLE "2:cjc140_258"
    INDEX 01 00:01:73
  TRACK 04 AUDIO
    TITLE "2:cjc140_259"
    INDEX 01 00:06:71
  TRACK 05 AUDIO
    TITLE "2:cjc140_260"
    INDEX 01 00:16:16
  TRACK 06 AUDIO
    TITLE "0:"
    INDEX 01 00:21:27
